<mxfile host="app.diagrams.net" agent="Mozilla/5.0 (X11; Linux x86_64) AppleWebKit/537.36 (KHTML, like Gecko) Chrome/128.0.0.0 Safari/537.36" version="24.7.7">
  <diagram name="PÃ¡gina-1" id="5Gn8d15XiOPDV0ttVeEd">
    <mxGraphModel dx="2004" dy="2009" grid="0" gridSize="10" guides="1" tooltips="1" connect="1" arrows="1" fold="1" page="0" pageScale="1" pageWidth="827" pageHeight="1169" math="0" shadow="0">
      <root>
        <mxCell id="0" />
        <mxCell id="1" parent="0" />
        <mxCell id="OQmP3vTOubqYYDaqHJt7-2" value="" style="verticalLabelPosition=bottom;html=1;verticalAlign=top;align=center;strokeColor=none;fillColor=#00BEF2;shape=mxgraph.azure.azure_subscription;" vertex="1" parent="1">
          <mxGeometry x="-78" y="-898" width="50" height="35" as="geometry" />
        </mxCell>
        <mxCell id="OQmP3vTOubqYYDaqHJt7-3" value="" style="rounded=0;whiteSpace=wrap;html=1;" vertex="1" parent="1">
          <mxGeometry x="198" y="-728" width="249" height="362" as="geometry" />
        </mxCell>
        <mxCell id="OQmP3vTOubqYYDaqHJt7-4" value="" style="rounded=0;whiteSpace=wrap;html=1;" vertex="1" parent="1">
          <mxGeometry x="530" y="-728" width="249" height="362" as="geometry" />
        </mxCell>
        <mxCell id="OQmP3vTOubqYYDaqHJt7-5" value="" style="rounded=0;whiteSpace=wrap;html=1;" vertex="1" parent="1">
          <mxGeometry x="905" y="-728" width="249" height="362" as="geometry" />
        </mxCell>
        <mxCell id="OQmP3vTOubqYYDaqHJt7-8" value="CIDR &lt;code&gt;10.0.0.0/22&lt;/code&gt;" style="text;whiteSpace=wrap;html=1;" vertex="1" parent="1">
          <mxGeometry x="201" y="-728" width="140" height="36" as="geometry" />
        </mxCell>
        <mxCell id="OQmP3vTOubqYYDaqHJt7-9" value="CIDR &lt;code&gt;10.0.4.0/22&lt;/code&gt;." style="text;whiteSpace=wrap;html=1;" vertex="1" parent="1">
          <mxGeometry x="530" y="-726" width="144" height="36" as="geometry" />
        </mxCell>
        <mxCell id="OQmP3vTOubqYYDaqHJt7-11" value="CIDR &lt;code&gt;10.0.8.0/22&lt;/code&gt;." style="text;whiteSpace=wrap;html=1;" vertex="1" parent="1">
          <mxGeometry x="905" y="-728" width="144" height="36" as="geometry" />
        </mxCell>
        <mxCell id="OQmP3vTOubqYYDaqHJt7-12" value="" style="verticalLabelPosition=bottom;html=1;verticalAlign=top;align=center;strokeColor=none;fillColor=#00BEF2;shape=mxgraph.azure.virtual_machine;" vertex="1" parent="1">
          <mxGeometry x="284" y="-528" width="92" height="68" as="geometry" />
        </mxCell>
        <mxCell id="OQmP3vTOubqYYDaqHJt7-13" value="" style="verticalLabelPosition=bottom;html=1;verticalAlign=top;align=center;strokeColor=none;fillColor=#00BEF2;shape=mxgraph.azure.virtual_machine;" vertex="1" parent="1">
          <mxGeometry x="284" y="-632" width="92" height="68" as="geometry" />
        </mxCell>
        <mxCell id="OQmP3vTOubqYYDaqHJt7-14" value="Frontend 1" style="text;strokeColor=none;fillColor=none;html=1;align=center;verticalAlign=middle;whiteSpace=wrap;rounded=0;fontSize=16;" vertex="1" parent="1">
          <mxGeometry x="281" y="-668" width="87" height="30" as="geometry" />
        </mxCell>
        <mxCell id="OQmP3vTOubqYYDaqHJt7-16" value="Frontend 2" style="text;strokeColor=none;fillColor=none;html=1;align=center;verticalAlign=middle;whiteSpace=wrap;rounded=0;fontSize=16;" vertex="1" parent="1">
          <mxGeometry x="284" y="-558" width="87" height="30" as="geometry" />
        </mxCell>
        <mxCell id="OQmP3vTOubqYYDaqHJt7-17" value="" style="verticalLabelPosition=bottom;html=1;verticalAlign=top;align=center;strokeColor=none;fillColor=#00BEF2;shape=mxgraph.azure.virtual_machine;" vertex="1" parent="1">
          <mxGeometry x="608.5" y="-581" width="92" height="68" as="geometry" />
        </mxCell>
        <mxCell id="OQmP3vTOubqYYDaqHJt7-18" value="" style="image;aspect=fixed;html=1;points=[];align=center;fontSize=12;image=img/lib/azure2/databases/Azure_SQL_VM.svg;" vertex="1" parent="1">
          <mxGeometry x="1001" y="-584" width="78.93" height="74" as="geometry" />
        </mxCell>
        <mxCell id="OQmP3vTOubqYYDaqHJt7-19" value="Public Subnet" style="text;whiteSpace=wrap;html=1;" vertex="1" parent="1">
          <mxGeometry x="198" y="-755" width="140" height="36" as="geometry" />
        </mxCell>
        <mxCell id="OQmP3vTOubqYYDaqHJt7-20" value="Private Subnet 01" style="text;whiteSpace=wrap;html=1;" vertex="1" parent="1">
          <mxGeometry x="530" y="-757" width="140" height="36" as="geometry" />
        </mxCell>
        <mxCell id="OQmP3vTOubqYYDaqHJt7-21" value="Private Subnet 02" style="text;whiteSpace=wrap;html=1;" vertex="1" parent="1">
          <mxGeometry x="903" y="-754.5" width="140" height="31" as="geometry" />
        </mxCell>
        <mxCell id="OQmP3vTOubqYYDaqHJt7-22" value="" style="sketch=0;outlineConnect=0;fontColor=#232F3E;gradientColor=none;fillColor=#8C4FFF;strokeColor=none;dashed=0;verticalLabelPosition=bottom;verticalAlign=top;align=center;html=1;fontSize=12;fontStyle=0;aspect=fixed;pointerEvents=1;shape=mxgraph.aws4.network_load_balancer;" vertex="1" parent="1">
          <mxGeometry x="77.5" y="-606" width="78" height="78" as="geometry" />
        </mxCell>
        <mxCell id="OQmP3vTOubqYYDaqHJt7-24" value="Load Balancer" style="text;whiteSpace=wrap;html=1;" vertex="1" parent="1">
          <mxGeometry x="75" y="-632" width="83" height="36" as="geometry" />
        </mxCell>
        <mxCell id="OQmP3vTOubqYYDaqHJt7-25" value="Public IP address" style="text;whiteSpace=wrap;html=1;" vertex="1" parent="1">
          <mxGeometry x="89.25" y="-525" width="54.5" height="36" as="geometry" />
        </mxCell>
        <mxCell id="OQmP3vTOubqYYDaqHJt7-28" value="" style="outlineConnect=0;dashed=0;verticalLabelPosition=bottom;verticalAlign=top;align=center;html=1;shape=mxgraph.aws3.elastic_ip;fillColor=#F58534;gradientColor=none;rotation=-15;" vertex="1" parent="1">
          <mxGeometry x="171" y="-600" width="78.5" height="21" as="geometry" />
        </mxCell>
        <mxCell id="OQmP3vTOubqYYDaqHJt7-31" value="" style="outlineConnect=0;dashed=0;verticalLabelPosition=bottom;verticalAlign=top;align=center;html=1;shape=mxgraph.aws3.elastic_ip;fillColor=#F58534;gradientColor=none;rotation=15;" vertex="1" parent="1">
          <mxGeometry x="171.5" y="-541" width="78.5" height="21" as="geometry" />
        </mxCell>
        <mxCell id="OQmP3vTOubqYYDaqHJt7-32" value="" style="outlineConnect=0;dashed=0;verticalLabelPosition=bottom;verticalAlign=top;align=center;html=1;shape=mxgraph.aws3.elastic_ip;fillColor=#F58534;gradientColor=none;rotation=0;" vertex="1" parent="1">
          <mxGeometry x="429" y="-564" width="120" height="21" as="geometry" />
        </mxCell>
        <mxCell id="OQmP3vTOubqYYDaqHJt7-33" value="Security group" style="fillColor=none;strokeColor=#DD3522;verticalAlign=top;fontStyle=0;fontColor=#DD3522;whiteSpace=wrap;html=1;" vertex="1" parent="1">
          <mxGeometry x="560" y="-627" width="191" height="173" as="geometry" />
        </mxCell>
        <mxCell id="OQmP3vTOubqYYDaqHJt7-34" value="Security group" style="fillColor=none;strokeColor=#DD3522;verticalAlign=top;fontStyle=0;fontColor=#DD3522;whiteSpace=wrap;html=1;" vertex="1" parent="1">
          <mxGeometry x="944.97" y="-632" width="191" height="173" as="geometry" />
        </mxCell>
        <mxCell id="OQmP3vTOubqYYDaqHJt7-35" value="Security group" style="fillColor=none;strokeColor=#DD3522;verticalAlign=top;fontStyle=0;fontColor=#DD3522;whiteSpace=wrap;html=1;" vertex="1" parent="1">
          <mxGeometry x="253" y="-693.5" width="180" height="293" as="geometry" />
        </mxCell>
        <mxCell id="OQmP3vTOubqYYDaqHJt7-36" value="" style="outlineConnect=0;dashed=0;verticalLabelPosition=bottom;verticalAlign=top;align=center;html=1;shape=mxgraph.aws3.elastic_ip;fillColor=#F58534;gradientColor=none;rotation=0;" vertex="1" parent="1">
          <mxGeometry x="781" y="-562" width="120" height="21" as="geometry" />
        </mxCell>
        <mxCell id="OQmP3vTOubqYYDaqHJt7-38" value="Resource Group" style="fontStyle=0;verticalAlign=top;align=center;spacingTop=-2;fillColor=none;rounded=0;whiteSpace=wrap;html=1;strokeColor=#919191;strokeWidth=2;dashed=1;container=1;collapsible=0;expand=0;recursiveResize=0;" vertex="1" parent="1">
          <mxGeometry x="-18.5" y="-871" width="1348" height="683" as="geometry" />
        </mxCell>
        <mxCell id="OQmP3vTOubqYYDaqHJt7-39" value="VPC" style="points=[[0,0],[0.25,0],[0.5,0],[0.75,0],[1,0],[1,0.25],[1,0.5],[1,0.75],[1,1],[0.75,1],[0.5,1],[0.25,1],[0,1],[0,0.75],[0,0.5],[0,0.25]];outlineConnect=0;gradientColor=none;html=1;whiteSpace=wrap;fontSize=12;fontStyle=0;container=1;pointerEvents=0;collapsible=0;recursiveResize=0;shape=mxgraph.aws4.group;grIcon=mxgraph.aws4.group_vpc2;strokeColor=#8C4FFF;fillColor=none;verticalAlign=top;align=left;spacingLeft=30;fontColor=#AAB7B8;dashed=0;" vertex="1" parent="OQmP3vTOubqYYDaqHJt7-38">
          <mxGeometry x="36.5" y="29" width="1274.5" height="610" as="geometry" />
        </mxCell>
      </root>
    </mxGraphModel>
  </diagram>
</mxfile>
